<svg xmlns="http://www.w3.org/2000/svg" viewBox="0 0 1750.49678 906.18064">
  <defs>
    <style>
      .cls-1{stroke-miterlimit:10;fill:#1f88f2;stroke:#1f88f2}
    </style>
  </defs>
  <g id="Layer_2" data-name="Layer 2">
    <g id="logo">
      <g id="c_delgado">
        <path d="M1749.506 573.07781c.497 6.32925 1.55391 9.17-2.67888 14.10965-4.14693 4.83946-10.49585 8.85917-16.2033 11.55027a42.77679 42.77679 0 0 1-28.46533 3.11978c-3.87384-.984-8.3576-2.47368-11.54773-.06577a12.11627 12.11627 0 0 0-2.77756 3.52805c-6.72182 10.97157-15.45338 20.54819-24.12868 30.05069-3.56551 3.9055-7.30649 7.93511-12.22 9.89137-14.522 5.78151-35.47121-8.22365-37.45711-23.25553-2.42211-18.3338 8.20579-40.11813 14.14144-57.06122 2.45093-6.99611 6.42229-15.10159 13.80073-15.8166 2.95072-.28594 5.8513.75115 8.63455 1.77192l31.46951 11.54165c2.61546.95924 5.33587 1.98694 7.222 4.03731 4.82076 5.2406 3.04484 11.93738 6.32375 17.49162 3.82064 6.4719 11.7782 5.05152 18.195 3.269 12.65727-3.516 23.67475-12.55494 35.68814-15.91458a10.63032 10.63032 0 0 0 .00347 1.75239zm-87.55478 37.10188q9.35742-9.96974 8.13965-19.18848a19.24658 19.24658 0 0 0-5.28418-10.62207 49.57506 49.57506 0 0 0-11.876-9.10449 73.65374 73.65374 0 0 0-12.72461 26.09961 269.68209 269.68209 0 0 0-6.13964 29.43359 51.1426 51.1426 0 0 0 16.23925-6.834 56.13169 56.13169 0 0 0 11.64548-9.78416z" class="cls-1"/>
        <path d="M1491.78346 692.58515a3.364 3.364 0 0 0 1.77113 4.20339 65.28628 65.28628 0 0 1-15.16495-31.82738c-.74347-4.3433-.45282-9.75652-5.94378-8.35947-2.27185.578-7.18224 7.08963-7.81438 9.25048-.66288 2.26595-2.5593 3.91967-4.36582 5.43969-9.17575 7.72054-18.38785 15.46781-28.53326 21.8609-2.51955 1.58768-5.1815 3.12128-8.13176 3.52727a15.439 15.439 0 0 1-6.76993-.76589c-17.29977-5.54468-18.416-25.80587-13.40981-40.34383a2.1188 2.1188 0 0 1-.6875-1.52636 3.75981 3.75981 0 0 1 .33008-1.17579 1.53439 1.53439 0 0 0 .21289-.83691c-.02735-.208-.38672-.48535-1.08008-.82813.12988-.66406.33691-1.55078.61816-2.66894a12.818 12.818 0 0 1 1.21619-3.07886c2.199-3.89529 2.27854-7.48644 4.99763-11.47759 2.92119-4.28779 5.63807-9.29948 8.98323-13.2307 3.72557-4.37827 9.59692-6.762 12.20736-12.11909a42.82112 42.82112 0 0 1 2.13806-4.80607c1.20282-1.84858 3.14031-3.06478 4.74377-4.579 2.82737-2.67008 4.65514-6.3153 7.70782-8.72453 6.40338-5.05366 16.08007-2.97472 22.73536 1.74224 2.653 1.8803 5.08212 4.14482 8.053 5.46676 12.86883 5.72621 9.1853-11.08246 10.19139-18.07575a283.80419 283.80419 0 0 1 25.47126-83.24479c6.45192-13.3071 13.93987-26.06876 20.88415-39.11725a282.48135 282.48135 0 0 0 13.83256-31.35651c.6841-1.767 1.46219-3.65233 3.06057-4.66985 3.3108-2.10765 18.07015 2.13311 20.72621 5.08 4.886 5.42091.48632 14.72483-1.556 20.45876-4.59715 12.90673-9.36634 25.75127-14.08186 38.615q-9.49838 25.91109-18.81236 51.88934l-6.552 18.17276-9.697 26.8959c-5.9056 16.38-11.8455 32.89361-14.39412 50.11816s-1.50254 35.4221 6.07895 51.097c1.32627 2.74206 3.0241 5.562 5.80454 6.80581 4.02308 1.79969 8.64537-.3267 12.42789-2.58869 21.72638-12.99265 39.38788-31.65782 56.75088-50.07984l18.19772-19.30764c3.51671-3.73121 11.25459-15.48586 16.41772-15.11074a4.47831 4.47831 0 0 1 .09008 3.22626 13.58722 13.58722 0 0 0-.19434 3.42187c.02442 1.83106-.46484 3.02735-1.46485 3.606.87549 8.11252-10.58492 19.2906-15.39837 24.57843-14.71274 16.16272-29.439 32.33936-45.19507 47.48676-6.76162 6.5004-13.838 12.89651-22.27254 16.9994s-18.50905 5.6906-27.24772 2.28322c-6.55521-2.556-11.764-7.61592-16.78084-12.549q-.05527.10975-.10026.2232zm-33.45826-74.34394a19.882 19.882 0 0 0-3.34082 2.86524q-.69.90379-2.89649 3.77929a8.218 8.218 0 0 1-2.05762 1.56446 5.08357 5.08357 0 0 0-1.73925 1.52441 10.65928 10.65928 0 0 0-3.19434 3.98047 11.65692 11.65692 0 0 1-2.876 3.93652q-3.86718 5.04346-7.35254 9.21875a33.24779 33.24779 0 0 0-4.74511 6.9336 48.60294 48.60294 0 0 0-2.45606 7.11621 15.30931 15.30931 0 0 1-2.90039 6.20507 3.87621 3.87621 0 0 0-1.91015 2.67774 3.5042 3.5042 0 0 0-.00293 2.42676 43.52465 43.52465 0 0 0-1.03223 11.77929 34.34115 34.34115 0 0 0 11.5791-7.83691 54.55111 54.55111 0 0 0 7.83106-9.2793q4.53515-4.80028 8.60351-9.5459a78.31694 78.31694 0 0 0 6.73926-8.97656 62.9061 62.9061 0 0 1 5.91406-10.32226q3.4043-4.81641 6.31543-9.72852a20.44557 20.44557 0 0 1 3.35352-4.001c1.33984-1.25293 1.8623-3.04589 1.55371-5.37988q-4.76514-4.22315-8.90723-2.543a25.11234 25.11234 0 0 0-6.47849 3.60552z" class="cls-1"/>
        <path d="M1410.06673 638.85846c3.01977 3.3363-2.39681 6.81446-2.39681 10.65228q-1.17341 2.08588-1.68444 3.12261c-7.75013 15.76714-20.43168 31.14714-35.09074 40.94688-12.417 8.30086-27.5037 13.03928-42.37224 11.621-6.08-.58-12.18987-2.23127-17.17339-5.76316-8.90339-6.31027-7.37683-21.88549-13.28857-26.396-1.20312-.918-2.10253-.7998-2.70758.36688-4.70109 9.0131-9.62548 19.311-19.95095 23.006a26.08484 26.08484 0 0 1-24.08749-3.694c-14.19685-10.74758-2.19266-37.69215 6.01719-49.507a92.48294 92.48294 0 0 1 34.728-30.11859c2.26968-1.12042 4.75192-2.172 7.25335-1.78516 4.25254.65758 8.6151 5.22479 12.02428 2.59915 1.6807-1.29441 1.89553-3.68452 2.57743-5.69332 3.11514-9.177 17.55039-9.578 23.88968-2.24768s6.06136 18.36562 3.2917 27.65267-7.63769 17.92854-9.50815 27.43758a45.34859 45.34859 0 0 0 1.75272 23.79286c1.13711 3.2014 2.86962 6.51083 5.96145 7.91886a11.15935 11.15935 0 0 0 6.398.53925c9.74242-1.58215 17.15216-9.31366 23.7952-16.61353 9.23756-10.15091 18.35834-20.42413 27.71986-30.46063 2.16542-2.32154 7.497-11.26682 11.72268-8.34347a6.49511 6.49511 0 0 1 1.12882.96652zm-107.75911-7.13092c.42187-.05566.55371-.28418.39258-.69824-.165-.40723-.77442-.54492-1.832-.40528a62.93523 62.93523 0 0 0-11.26171 7.32032 55.29476 55.29476 0 0 0-9 9 51.45647 51.45647 0 0 0-9 18c1.60107 1.301 4.65673 3.37011 7.74829 2.61523 1.86023-.4541 3.53967-2.62256 6.5271-7.14062q4.44873-6.728 8.26855-12.08887 2.39942-3.87159 4.93555-7.92871a22.37788 22.37788 0 0 0 3.22164-8.67383z" class="cls-1"/>
        <path d="M1179.0188 664.8186c7.94641 10.36792 3.2738 28.27124 5.25683 42.86841-.88989-6.55 61.80921-46.04272 69.76893-47.97485a6.10775 6.10775 0 0 1 1.6947 4.0271 6.63594 6.63594 0 0 1-1.14942 3.54687 11.28171 11.28171 0 0 1-2.7041 2.78321 12.06361 12.06361 0 0 0-2.4635 2.27612c-21.34192 20.00268-47.543 38.02783-58.28454 66.58057-5.56775 14.8-6.38135 30.87744-8.132 46.593a376.28263 376.28263 0 0 1-20.33064 86.86907c-3.62042 9.95315-8.64306 20.41994-16.90726 27.36165a25.0307 25.0307 0 0 1-13.25162 5.69159c-6.0602.72066-12.16722-.37282-18.20235-.83208a5.56379 5.56379 0 0 1-3.234-1.10278 4.73571 4.73571 0 0 1-1.29577-1.97493c-.9144-2.44716-.59875-5.24511-.83875-7.80657-.2735-2.91895-.37237-5.85767-.43242-8.7877a183.24426 183.24426 0 0 1 .59693-18.40007c.426-5.311 1.04688-10.60506 1.79787-15.87951 2.53809-17.82568 6.64148-35.49267 13.49561-52.1809 1.27856-3.10425 2.70007-6.156 3.7373-9.34888 1.156-3.55835 1.82251-7.25342 2.67615-10.89624a120.14833 120.14833 0 0 1 13.73108-33.61231c4.48279-7.57861 11.39832-15.8623 12.0376-24.90649 0-6.1416.87744-12.41406 1.31055-18.54272.28015-3.96314 2.92492-13.55518-.80725-16.34693-1.43445-1.073-3.24048-1.48266-4.90271-2.15014-1.90015-.7627-3.82508-1.91211-5.84375-1.56983a7.927 7.927 0 0 0-2.88489 1.32813c-8.71875 5.62768-16.44361 12.916-24.79431 19.1123-14.3335 10.63574-28.50245 21.55615-43.21936 31.63745-6.05311 4.14649-13.26587 8.19043-20.35108 6.28418-5.65661-1.52173-9.62964-6.45068-13.19556-11.09814-3.01123-3.92456-5.637-8.55884-5.191-13.71a18.716 18.716 0 0 1 2.61524-7.1377 69.29208 69.29208 0 0 1 5.39258-8.15137 92.56367 92.56367 0 0 1 6.58581-7.65893c16.79468-17.52344 33.08936-34.52954 52.88111-48.80371 3.14782-2.27027 6.42163-4.48194 10.12561-5.6416 6.40918-2.00635 15.66833.73364 22.04211 2.50732 7.45325 2.074 14.64453 5.65674 19.48718 11.87061.34253.43945 2.17774 3.90478 2.44263 3.94409a57.04255 57.04255 0 0 1 12.23694 3.08691 19.06553 19.06553 0 0 1 8.50352 6.1458zm-61.83818-12.21442a24.70121 24.70121 0 0 0-8.39234 3.30445 43.40649 43.40649 0 0 0-4.19459 3.09962 183.16371 183.16371 0 0 0-15.70586 14.32084q-2.83248 2.90115-5.51894 5.9401c-9.10869 10.35863-18.32827 22.807-21.738 36.2574 5.67966-2.00448 10.93684-5.02482 16.15757-8.02822l58.29855-33.53828a2.39657 2.39657 0 0 0 1.21981-1.172 2.34169 2.34169 0 0 0-.12617-1.39244c-1.71718-5.59109-4.37552-11.125-8.91741-14.81018-1.439-1.16758-3.20258-2.40282-3.29071-4.25385a24.61188 24.61188 0 0 0-7.79191.27256zm22.0472 147.03424c-3.574 8.1011-4.80105 17.10294-7.04221 25.61176-3.9237 14.89678-7.77729 30.17945-6.02925 45.70544a1.79821 1.79821 0 0 0 .377 1.087 1.63986 1.63986 0 0 0 1.20006.36164c3.25325.003 6.23924-2.01739 8.22088-4.59746a33.02454 33.02454 0 0 0 4.27249-8.73232c16.19991-43.214 37.0865-83.42548 31.46818-131.12979 1.13879 9.68727-4.66834 17.62229-9.86757 25.1645-3.2066 4.65157-19.5524 39.62227-22.59958 46.52923z" class="cls-1"/>
        <path d="M1062.66931 682.85278a1.11989 1.11989 0 0 1 .98523.627 6.81548 6.81548 0 0 1 .3103 2.03979 10.55473 10.55473 0 0 1-1.16113 4.68067 10.65619 10.65619 0 0 0-1.5293 3.11328q-.19482.99609-1.97265 2.20117a7.54931 7.54931 0 0 0-1.40137 1.64062 7.8543 7.8543 0 0 1-1.40039 1.63965 14.024 14.024 0 0 1-1.55957 1.66211 17.88775 17.88775 0 0 1-2.19531 1.74512q-1.38428 1.80468-1.93164 2.51953a4.99727 4.99727 0 0 1-1.14551 1.12207c-.39942.26855-.84082.59473-1.3252.9834a12.00653 12.00653 0 0 0-1.83593 2.02051 32.22244 32.22244 0 0 1-2.71241 2.79028 96.5415 96.5415 0 0 0-16.70825 21.30322c-16.26391 28.229-38.25232 63.72559-76.56445 53.04419a28.28481 28.28481 0 0 1-9.29212-4.21728c-3.05957-2.25782-5.3778-5.354-7.64965-8.40308-6.1023-8.19067-12.25806-16.54346-16.4679-25.90356-4.23425-9.41431-5.03528-19.71558-8.155-29.50538q-2.6499 1.97314-4.41113 3.332a11.20316 11.20316 0 0 1-3.62695 1.93261q-3.40871 1.1045-5.10645.51368-1.69189-.58008-1.73633-.90235 2.5254-2.918 4.21-4.93237c3.17578-3.77661 7.13611-7.47754 8.43592-12.38941 1.92968-7.29248.976-16.4038 1.78186-23.96777a337.48974 337.48974 0 0 1 8.79052-48.52 241.81778 241.81778 0 0 1 14.13062-40.79614c1.93347-4.20093 4.02087-8.3291 6.10779-12.45606 5.73669-11.34448 11.48034-22.70166 18.05993-33.5791q6.3783-10.54467 13.769-20.43115c4.71423-6.30518 9.124-13.07788 15.12036-18.27661a17.03494 17.03494 0 0 1 13.74011-4.49829c6.726.70874 14.63623 1.75244 15.744 9.70727 1.41431 10.15528.96973 20.53491-.28064 30.6897-4.233 34.37939-26.3169 61.63721-44.4928 89.96606-8.17517 12.7417-16.45776 25.7168-20.62524 40.27076-2.97815 10.40063-3.75647 21.28466-4.51868 32.07617-1.57434 22.28515 1.3418 48.95508 19.88489 64.09155a5.06037 5.06037 0 0 0 2.63316 1.34736c1.49694.12793 2.78564-.98022 3.861-2.02929 5.83777-5.69507 11.08362-11.94678 16.5116-18.02491 11.59606-12.98486 24.45593-25.042 37.00891-37.08154 3.24326-3.11081 32.49949-31.6926 38.7208-31.14548zm-82.28064-119.551a222.28323 222.28323 0 0 0-10.66113 28.251q-4.63184 15.16846-9.26465 29.03907a5.564 5.564 0 0 0 2.65137-1.96582c.73242-.957 1.3789-1.79883 1.93164-2.51953a16.68972 16.68972 0 0 0 2.834-4.25586 23.04008 23.04008 0 0 1 2.5166-4.21289 2.7957 2.7957 0 0 1 .96485-1.25977 7.49071 7.49071 0 0 0 1.2832-1.30176l-.168-1.27148q.55079-.71631 1.49707-2.1377a10.75518 10.75518 0 0 0 1.17871-2.09668q3.41456-5.94726 6.74219-11.40136a59.35046 59.35046 0 0 0 5.42774-11.55176 31.38717 31.38717 0 0 0 2.36035-6.61914q.82617-3.50391 1.959-7.21192a2.23057 2.23057 0 0 1 1.04883-.625 2.18926 2.18926 0 0 0 1.0498-.623q3.23-9.80421 5.61817-18.69239a102.661 102.661 0 0 1 6.69629-17.86523l-.252-1.90723c-.083-.63476-.55273-.89648-1.39746-.78515a16.97009 16.97009 0 0 0-6.51367 7.00488q-2.31446 4.51172-4.43848 8.02539a21.4678 21.4678 0 0 0-2.24023 3.85449 20.3968 20.3968 0 0 1-1.96386 3.49306 12.20928 12.20928 0 0 0-1.47656 2.29589 4.60582 4.60582 0 0 1-1.24121 1.6211 64.74561 64.74561 0 0 0-3.52734 7.58008q-1.44431 3.75587-2.61522 7.13869z" class="cls-1"/>
        <path d="M908.9821 699.3762q.02985-.08249.05918-.16515c-.99391 2.80058 6.82342 5.3819 2.27024 11.31727a19.36991 19.36991 0 0 1-1.58652 3.93468c-15.43038 30.003-60.77109 54.75-94.29188 48.38126-15.44233-2.934-31.78071-12.23064-31.27218-29.95787.55468-19.33621 11.41337-39.93665 23.80688-54.243 5.40327-6.23719 11.84508-11.96582 19.7228-14.42336a29.21411 29.21411 0 0 1 27.12913 5.54509c4.23161 3.60517 7.50071 9.00369 6.67467 14.50109-.52692 3.50668-2.6221 6.55833-4.78533 9.36812-9.96364 12.94162-22.56784 22.36281-35.7459 31.75049-3.55549 2.53283-7.311 5.32393-8.75507 9.44358a10.90988 10.90988 0 0 0 2.74425 11.27407c10.46879 9.87359 30.77847 1.55217 41.585-3.70768a172.4655 172.4655 0 0 0 45.48591-32.15849 29.30927 29.30927 0 0 0 6.95882-10.8601zM805.18663 718.403c4.59136 2.65406 13.11291-8.96477 15.33439-11.57406 3.25392-3.822 6.33574-7.78879 9.3757-11.7819 2.96179-3.89042 9.01043-9.13148 9.42289-14.3187.36037-4.53212-5.81362-5.77642-9.21319-5.284-8.9879 1.302-16.9105 15.94287-18 18-6.96509 13.15234-8.26514 24.55542-9.26209 24.36254-.73157-.14135-.295-6.33251.26209-6.36254.53079-.02857-.24851 5.61206 2.08021 6.95866zm-30.96934-44.44621c-2.17847 11.85986-8.89454 22.93945-13.91626 33.61816-7.63843 16.24317-15.1587 34.908-31.58924 44.198a16.118 16.118 0 0 1 5.85706-9.219c1.56421 4.2998-.50305 8.62426-3.47 12.39062a47.2822 47.2822 0 0 1-3.84339 4.24048l-23.27929 23.0918c-3.36817 3.34106-6.82959 6.748-11.13477 8.74145-4.305 1.99316-9.69592 2.32275-13.58557-.39355q2.77954.2827 5.559.56591c-3.87586 5.74829-8.43384 11.721-13.84692 16.11158-2.40125 1.94751-17.80249 7.04565-18.24671 8.14819a27.25052 27.25052 0 0 1 6.38-9.439c-8.90357 6.95386-19.09034 14.29566-30.31543 13.02a70.29881 70.29881 0 0 0 24.62854-19.46582q-20.95075 13.49159-42.84571 25.43579-.722-1.80834-1.44384-3.61621a3.774 3.774 0 1 1-4.18018-5.02905c-2.81934.48438-7.77466.21338-9.99426-1.64038 3.57678-3.5874 8.95569-4.90991 12.6405-8.52124a4.63909 4.63909 0 0 1-2.05066 4.447c25.49426-16.99634 48.11792-35.80517 71.73218-55.34619 16.76819-13.876 33.12195-28.59131 46.31872-45.99976 12.6-16.62109 25.90088-39.2146 18.04-60.69555-5.581-15.25122-21.17663-24.79981-36.93884-28.71143-8.46814-2.10156-73.34241-13.16943-73.34241 3.83594 0 30.48657-5.97924 62.1709-8.89965 92.53784q-2.22492 23.13428-4.44983 46.2688c-.7688 7.99341-1.50794 15.99023-2.30628 23.98071-1.70556 17.06861-8.37549 5.86548-12.10217-4.17138-5.94934-16.0232-7.66309-33.27954-8.68067-50.2229-2.149-35.78785-2.03869-72.51246 2.07459-108.16065.09717-.87109.2124-1.64355.3418-2.30859a60.98968 60.98968 0 0 1-20.04834 2.48633 62.49373 62.49373 0 0 1-18.17676-2.93653 78.5739 78.5739 0 0 1-16.2685-11.75968 68.83438 68.83438 0 0 1-11.39308-14.01948 44.301 44.301 0 0 0 14.02917-1.5293c21.47052-5.73584 40.72974-10.87793 63.21363-12.00171 36.88244-1.84351 76.51513-1.33252 111.037 13.4397 16.9187 7.23974 32.44934 18.46679 42.79456 33.68628 7.35644 10.82251 12.55676 24.551 12.41418 37.78442a42.08533 42.08533 0 0 1-.71217 7.1584zM398.31651 793.173c3.044-3.86255 8.3018-6.11541 15.15036-4.79016 16.44956 3.18313 16.2911 32.67253-.0389 32.34544a10.787 10.787 0 0 1-4.30513-1.2216c-9.24666-4.35082-18.8721-16.09885-10.80633-26.33368zm-30.6196-20.23654c5.80449-.76951-2.72287 15.57725-3.80943 17.44784-6.12205 10.53949-14.54361 20.25741-22.3073 29.63036-17.18593 20.74822-37.05123 40.064-61.71355 51.62072-.58732-.29655.66645-.97248.84947-.3405s-.47457 1.16629-1.04666 1.49125a88.24435 88.24435 0 0 1-38.333 11.279c-12.34306.71774-24.98515-1.22957-36.04182-6.76275-14.0566-7.03446-24.87491-19.5397-31.97606-33.56272s-10.74041-29.55167-13.05027-45.09953a5.82672 5.82672 0 0 1 .18849-3.42035c.511-1.04193 1.9657-1.69349 2.87427-.97155s-.03484 2.639-1.05378 2.08366c2.37767-3.63832-.78808-7.55952-1.28215-11.30066a11.32128 11.32128 0 0 0-1.18116-4.04785 10.80217 10.80217 0 0 1 3.521-2.72949l.63574-.084a4.60124 4.60124 0 0 0 1.07325-2.89062 28.02106 28.02106 0 0 0-.23926-3.042 7.1392 7.1392 0 0 0-1.57471-3.34863q-1.36964-1.75928-.85449-2.79883a22.31559 22.31559 0 0 1 .99853-2.23437c.50977-1.03711 1.09717-1.48926 1.76026-1.36426q3.11279 1.53076 3.40674 3.75586a4.46531 4.46531 0 0 0 1.32861-3.41016 4.43711 4.43711 0 0 1 1.32861-3.41015 3.12748 3.12748 0 0 1-.34179 2.30957 4.36978 4.36978 0 0 0-.66016 2.35058c.63623-.084.81738-.32129.55225-.71972q-.40357-.59034.95361-.126a12.61843 12.61843 0 0 0-.92676 4.00293 24.0513 24.0513 0 0 1-.60937 3.96289 3.092 3.092 0 0 1-.21875-2.88281 8.55282 8.55282 0 0 0 .291-3.91895 5.24826 5.24826 0 0 0-1.08594 4.02442c-.37011.4834-.54394.77539-.53027.8789.01465.10938-.41992.11036-1.293.00879a5.38853 5.38853 0 0 1-.55469 3.14453 16.5422 16.5422 0 0 0-1.19043 3.23047 5.17641 5.17641 0 0 0 .53711 2.84082 5.22568 5.22568 0 0 1 .53614 2.83985q-.10914 1.63623-.56641 4.27929-.46069 2.65431.98047 3.752c.90039.31543 1.10059.98632.59082 2.02441-.50977 1.03711-.51416 1.84668-.00293 2.42481q1.968-2.19873 1.15137-5.97364a16.95157 16.95157 0 0 0-.63282-2.34179 1.98894 1.98894 0 0 1 .63868-2.50977 3.22283 3.22283 0 0 1 .99316 2.61914 10.84152 10.84152 0 0 0-.04541 2.10742q2.54077-.33691 2.47119-2.10547a31.488 31.488 0 0 1 .03613-3.40039 3.93934 3.93934 0 0 1 .3418-2.30957 21.57708 21.57708 0 0 0 .978-2.39257 4.07682 4.07682 0 0 0 .77637-2.69043c-.03516-1.07227-.12012-2.13672-.26026-3.19922a3.53478 3.53478 0 0 0 1.70947-2.97559 15.24753 15.24753 0 0 1 .67188-3.48437 7.66358 7.66358 0 0 0 .71338-3.168 11.55977 11.55977 0 0 1 .396-3.125q1.75856-3.78663 3.52686-7.58106a19.87 19.87 0 0 0 1.854-8.00683q-1.63623-.10254-1.93212 2.51855a12.51268 12.51268 0 0 1-.80958 3.665 4.143 4.143 0 0 1-.41992-3.17871 8.59038 8.59038 0 0 0 .21631-3.2627 2.09367 2.09367 0 0 0-1.58935.21 2.25439 2.25439 0 0 0-1.01954 2.0752c-.48339-.36523-.45849-1.0166.06592-1.94922q.78589-1.39306-.88818-1.82324a6.624 6.624 0 0 0 1.1582-2.25488 1.75945 1.75945 0 0 1 1.60108-1.34473 1.86853 1.86853 0 0 1-.14991 1.31445 1.84642 1.84642 0 0 0-.1499 1.3125 23.28447 23.28447 0 0 0 1.27442-2.59277 3.11913 3.11913 0 0 1 2.03613-1.72559c.8042 1.1875.74365 1.95411-.18262 2.28907-.92529.33984-1.30469 1.1416-1.13672 2.41406.87256.10156 1.21729-.16016 1.02881-.7832-.19336-.6211.04785-.86524.71045-.74122l.084.63575.084.63672c1.24414-.377 1.53418-1.01075.88184-1.89551-.65723-.88282-.48438-1.60352.52148-2.1709a9.44139 9.44139 0 0 0 2.69678-4.0752q.68115-2.18994 1.38232-4.22558 2.1482-5.77881 4.019-11.2041 1.86915-5.417 4.33692-11.2461a11.98465 11.98465 0 0 0-3.18555 5.27246 44.22657 44.22657 0 0 1-2.147 5.78223 1.23614 1.23614 0 0 1-.50733-1.38965 4.24046 4.24046 0 0 1 .76514-1.55566q-.72437-.54932-.9541.126a.62739.62739 0 0 1-.91065.43955c1.60856-6.318 6.16193-12.99874 10.694-17.508l.63155-3.04027a86.69153 86.69153 0 0 0 14.29494-22.68641l-8.40344 9.72345a134.75282 134.75282 0 0 1 45.58579-50.93859c8.83979-5.82877 18.57454-10.66965 29.05264-12.19473a50.36974 50.36974 0 0 1 40.0135 11.9148c20.163 17.80424 20.02589 48.68172 13.43 72.66381a8.71462 8.71462 0 0 1-1.557 3.471 6.21165 6.21165 0 0 1-6.12439 1.5522c-4.433-1.06079-7.52318-5.32236-8.56013-9.76119-2.0089-8.59985 1.48376-17.79322-.80915-26.47984a65.10531 65.10531 0 0 0-21.09455-33.48758 11.04428 11.04428 0 0 0-4.2745-2.4831c-2.73117-.65759-5.52125.64238-7.97492 2.01031-18.97254 10.5773-34.02016 27.36891-44.7357 46.26373s-17.3115 39.87524-21.9167 61.10326c-5.6183 25.898-8.362 52.85354-3.41 78.88717.91067 4.78768 2.12712 9.6404 4.845 13.68571 6.06771 9.03139 18.0667 11.92859 28.94662 12.02989 25.09086.2336 49.32776-10.56254 69.20776-25.87241a233.33527 233.33527 0 0 0 28.73027-26.942c4.13437-4.47808 15.36083-22.71412 21.22213-23.55774zM163.00439 788.001c.87305.10156 1.25782-.27246 1.14551-1.12305a1.48482 1.48482 0 0 0-1.16357-1.46289 1.95384 1.95384 0 0 1-.1709 1.15527 1.6881 1.6881 0 0 0 .18896 1.43067zm.52881-15.59571q.99537.19629.44336.91211c-.3706.4834-.53711.8291-.50976 1.03809-.66309-.125-.81446-.42871-.44434-.91211.36719-.47756.53854-.82326.51074-1.03811zm1.66016 44.415q.43066-1.67139.77344-.26367c.23535.93848.56152 1.38086.9834 1.3252a2.90669 2.90669 0 0 1 .15039-1.31348 2.92629 2.92629 0 0 0-.252-1.90723 9.54221 9.54221 0 0 0-2.26709-.02441 1.329 1.329 0 0 0-.19189.99609c.11239.84963.38187 1.24321.80375 1.18752zm1.668-11.86426a2.321 2.321 0 0 1-.708-1.68457c.03418-.541-.292-.98242-.98389-1.32617.084.63574.1753 1.32715.273 2.06641.09806.74611.56925 1.05666 1.41886.94435zm.168 1.27247a4.66107 4.66107 0 0 0 .54785 1.70507c.27881.50489.55615.95313.82519 1.34766q.085.64014-.41406.54-.49731-.09375-.41357.53906c.14062 1.06348.35058 2.27442.6416 3.63574a3.62724 3.62724 0 0 0 2.147 2.78809 21.73569 21.73569 0 0 1 .09326-6.64258 11.05132 11.05132 0 0 0-1.22021-6.792l-.31787.042a2.83774 2.83774 0 0 1-.96582 1.25977 2.53234 2.53234 0 0 0-.92343 1.57721zm3.71875-25.71875a4.21652 4.21652 0 0 1-.17676-2.56446 23.77788 23.77788 0 0 0 .459-2.64746q.63282-.08349.09278 1.92774a8.70771 8.70771 0 0 0-.37508 3.2842zm6.75976-17.38868c.168 1.27149-.16015 2.07422-.97705 2.39356a3.14378 3.14378 0 0 1-.50732-1.38867c-.0694-.52635.42181-.86424 1.48431-1.00487zm.21045-15.55273c.42188-.05566.65674.07617.69873.39355s.27149.44922.69873.39258c-.231 1.541-.75439 2.47559-1.57129 2.79492a5.35552 5.35552 0 0 0 .10743-1.63183 8.70126 8.70126 0 0 1 .06634-1.9492zm10.17868-23.33689a8.73421 8.73421 0 0 0-1.72119 4.10742 5.84888 5.84888 0 0 1-2.39941 3.875 20.71723 20.71723 0 0 1 4.1206-7.98242zm1.59522-5.06153c.84472-.1123.99609.19141.44433.91113l-.55175.71973c-.66358-.125-.74659-.332-.24317-.61523q.7485-.41748.35056-1.01563zm6.18457-14.40234c.395-.26367.46386-.54492.21289-.83692-.25537-.28906-.19971-.66992.17139-1.15429a5.81518 5.81518 0 0 1 .92334-1.57617 11.87149 11.87149 0 0 0 1.20019-1.9375 13.71467 13.71467 0 0 1 1.32764-3.41016 5.93194 5.93194 0 0 1 2.1748-1.90527 11.82617 11.82617 0 0 1-1.2749 2.59472 20.4 20.4 0 0 0-1.55029 2.9541q-.42993 1.67871-.89356 3.02832a4.12735 4.12735 0 0 1-2.29153 2.24317z" class="cls-1"/>
      </g>
      <path id="eliud" d="M1281.49219 310.15137V391.002h-72.60059v-32.45024s-24.75 39.59961-80.85058 39.59961c-73.7002 0-133.10059-63.25-133.10059-141.90039 0-37.40039 13.75-73.15039 38.5-99.55078 25.30078-26.9502 58.85059-41.79981 94.60059-41.79981a152.19763 152.19763 0 0 1 23.10058 1.64941c53.35059 10.4502 124.30078 86.90137 130.35059 193.60157zm-72.60059-53.35059c0-22-7.70019-42.34961-21.45019-57.20019-13.2002-14.84961-31.34961-23.09961-50.04981-23.09961a67.37347 67.37347 0 0 0-50.60058 23.09961c-13.75 14.85058-21.4502 35.20019-21.4502 57.20019s7.7002 41.80078 21.4502 57.2002a67.37105 67.37105 0 0 0 50.60058 23.10058c18.7002 0 36.84961-8.25 50.04981-23.10058 13.75-15.39942 21.45019-35.2002 21.45019-57.2002zm72.60059-73.70019V.5h-72.60059v103.9502c34.6504 22.5498 57.75 52.25 72.60059 78.65039zM816.5791 391.002a81.2165 81.2165 0 0 1-38.5 9.34961c-92.40088 0-110.001-78.10058-110.001-112.20019V123.7002h70.9502v133.10058c0 34.65039 3.30078 59.40039 19.80078 70.9502 18.14942 10.45019 42.89942 8.80078 57.2002.55078h.5498zm102.30078-267.3018V391.002h-70.95019V123.7002zM587.62061 77.5h-72.05079V.5h72.05079zm0 314.05176h-72.05079V123.15039h72.05079zM360.69238.5h71.50049v391.05176h-71.50049zm-252.3916 73.15039l46.75049 76.4502 83.6001.5498v73.15039H73.10059v94.60059H275.502v73.15039H.5V150.10059h68.20068L.5 36.7998V.5h275.002v73.15039z"/>
    </g>
  </g>
</svg>